<svg width="44" height="44" viewBox="0 0 44 44" fill="none" xmlns="http://www.w3.org/2000/svg">
<path d="M25.1676 6.31416L28.3939 12.8201C28.8339 13.7258 30.007 14.5944 30.997 14.7608L36.8446 15.7404C40.5843 16.3688 41.4643 19.1043 38.7695 21.8027L34.2233 26.3864C33.4533 27.1627 33.0319 28.6598 33.27 29.7319L34.5717 35.4061C35.5982 39.8974 33.2333 41.6348 29.2922 39.2874L23.8111 36.016C22.8213 35.4246 21.1898 35.4246 20.1815 36.016L14.7005 39.2874C10.7776 41.6348 8.39452 39.8789 9.42107 35.4061L10.7226 29.7319C10.9609 28.6598 10.5393 27.1627 9.76935 26.3864L5.2232 21.8027C2.54682 19.1043 3.4084 16.3688 7.14798 15.7404L12.9957 14.7608C13.9672 14.5944 15.1404 13.7258 15.5804 12.8201L18.8067 6.31416C20.5665 2.78395 23.4261 2.78395 25.1676 6.31416Z" fill="#FEC84B" stroke="#FEC84B" stroke-width="2.75" stroke-linecap="round" stroke-linejoin="round"/>
</svg>
